<svg width="100" height="100" viewBox="0 0 100 100" fill="none" xmlns="http://www.w3.org/2000/svg">
<path d="M20.5391 58H23.7266L17.7266 41.0898H14.3164L8.31641 58H11.4336L12.875 53.6289H19.0977L20.5391 58ZM15.9453 44.0781H16.0273L18.3828 51.2969H13.5781L15.9453 44.0781ZM29.4922 58.1992C31.3086 58.1992 32.7383 57.2734 33.418 55.8789H33.4648V58H36.3242V41.0898H33.4062V47.6641H33.3359C32.6797 46.293 31.2734 45.3672 29.4922 45.3672C26.3633 45.3672 24.3359 47.8516 24.3359 51.7773C24.3359 55.7266 26.3633 58.1992 29.4922 58.1992ZM30.3711 47.7695C32.2109 47.7695 33.418 49.3516 33.418 51.7891C33.418 54.25 32.2109 55.8086 30.3711 55.8086C28.4844 55.8086 27.3242 54.2617 27.3242 51.7891C27.3242 49.3281 28.4961 47.7695 30.3711 47.7695ZM38.8438 58H41.7617V45.5781H38.8438V58ZM40.2969 43.9492C41.2109 43.9492 41.9258 43.2461 41.9258 42.3672C41.9258 41.4766 41.2109 40.7734 40.2969 40.7734C39.3945 40.7734 38.6797 41.4766 38.6797 42.3672C38.6797 43.2461 39.3945 43.9492 40.2969 43.9492ZM55.1445 45.5781H52.0977L49.2148 55.293H49.1562L46.2734 45.5781H43.1562L47.5625 58H50.7734L55.1445 45.5781ZM56.5625 58H59.4805V45.5781H56.5625V58ZM58.0156 43.9492C58.9297 43.9492 59.6445 43.2461 59.6445 42.3672C59.6445 41.4766 58.9297 40.7734 58.0156 40.7734C57.1133 40.7734 56.3984 41.4766 56.3984 42.3672C56.3984 43.2461 57.1133 43.9492 58.0156 43.9492ZM73.4492 55.9961C72.1836 55.9961 71.3398 55.3516 71.3398 54.332C71.3398 53.3477 72.1484 52.7148 73.5547 52.6211L76.4258 52.4453V53.3945C76.4258 54.8945 75.1016 55.9961 73.4492 55.9961ZM72.5703 58.1992C74.1641 58.1992 75.7227 57.3672 76.4375 56.0195H76.4961V58H79.3086V49.4453C79.3086 46.9492 77.3047 45.3203 74.2227 45.3203C71.0586 45.3203 69.0781 46.9844 68.9492 49.3047H71.6562C71.8438 48.2734 72.7227 47.6055 74.1055 47.6055C75.5469 47.6055 76.4258 48.3555 76.4258 49.6562V50.5469L73.1445 50.7344C70.1211 50.9219 68.4219 52.2461 68.4219 54.4492C68.4219 56.6875 70.168 58.1992 72.5703 58.1992ZM81.4414 49.1406C81.4414 50.9336 82.6016 52.1289 84.8984 52.668L87.1602 53.1953C88.3672 53.5 88.8242 53.8867 88.8242 54.6133C88.8242 55.5391 87.9453 56.1133 86.5273 56.1133C85.0508 56.1133 84.1719 55.4805 83.9961 54.3438H81.125C81.3242 56.6992 83.3047 58.2461 86.4219 58.2461C89.5625 58.2461 91.7305 56.6641 91.7305 54.3203C91.7305 52.4805 90.7578 51.5195 88.2734 50.9336L86.0586 50.4414C84.8398 50.1484 84.2773 49.6797 84.2773 48.9766C84.2773 48.0742 85.1211 47.4648 86.4102 47.4648C87.7695 47.4648 88.625 48.1211 88.7188 49.1875H91.4375C91.3672 46.8906 89.3867 45.3203 86.4688 45.3203C83.4453 45.3203 81.4414 46.8672 81.4414 49.1406Z" fill="#1F2937"/>
<path d="M64.2148 58.1523C65.4219 58.1523 66.3945 57.1797 66.3945 55.9727C66.3945 54.7656 65.4219 53.793 64.2148 53.793C63.0078 53.793 62.0469 54.7656 62.0469 55.9727C62.0469 57.1797 63.0078 58.1523 64.2148 58.1523Z" fill="#BFDBFE"/>
</svg>
