<svg width="100" height="100" viewBox="0 0 100 100" fill="none" xmlns="http://www.w3.org/2000/svg">
<rect width="100" height="100" rx="20" fill="white"/>
<path d="M33.0195 63H37.8008L28.8008 37.6348H23.6855L14.6855 63H19.3613L21.5234 56.4434H30.8574L33.0195 63ZM26.1289 42.1172H26.252L29.7852 52.9453H22.5781L26.1289 42.1172ZM57.3652 59.9941C55.4668 59.9941 54.2012 59.0273 54.2012 57.498C54.2012 56.0215 55.4141 55.0723 57.5234 54.9316L61.8301 54.668V56.0918C61.8301 58.3418 59.8438 59.9941 57.3652 59.9941ZM56.0469 63.2988C58.4375 63.2988 60.7754 62.0508 61.8477 60.0293H61.9355V63H66.1543V50.168C66.1543 46.4238 63.1484 43.9805 58.5254 43.9805C53.7793 43.9805 50.8086 46.4766 50.6152 49.957H54.6758C54.957 48.4102 56.2754 47.4082 58.3496 47.4082C60.5117 47.4082 61.8301 48.5332 61.8301 50.4844V51.8203L56.9082 52.1016C52.373 52.3828 49.8242 54.3691 49.8242 57.6738C49.8242 61.0312 52.4434 63.2988 56.0469 63.2988ZM69.3535 49.7109C69.3535 52.4004 71.0938 54.1934 74.5391 55.002L77.9316 55.793C79.7422 56.25 80.4277 56.8301 80.4277 57.9199C80.4277 59.3086 79.1094 60.1699 76.9824 60.1699C74.7676 60.1699 73.4492 59.2207 73.1855 57.5156H68.8789C69.1777 61.0488 72.1484 63.3691 76.8242 63.3691C81.5352 63.3691 84.7871 60.9961 84.7871 57.4805C84.7871 54.7207 83.3281 53.2793 79.6016 52.4004L76.2793 51.6621C74.4512 51.2227 73.6074 50.5195 73.6074 49.4648C73.6074 48.1113 74.873 47.1973 76.8066 47.1973C78.8457 47.1973 80.1289 48.1816 80.2695 49.7812H84.3477C84.2422 46.3359 81.2715 43.9805 76.8945 43.9805C72.3594 43.9805 69.3535 46.3008 69.3535 49.7109Z" fill="#1F2937"/>
<path d="M43.5137 63.2285C45.3242 63.2285 46.7832 61.7695 46.7832 59.959C46.7832 58.1484 45.3242 56.6895 43.5137 56.6895C41.7031 56.6895 40.2617 58.1484 40.2617 59.959C40.2617 61.7695 41.7031 63.2285 43.5137 63.2285Z" fill="#BFDBFE"/>
</svg>
